# Split from CornellBox-Original.obj (floor, ceiling, backwall, shortBox, tallBox)
v  -1.01  0.00   0.99
v   1.00  0.00   0.99
v   1.00  0.00  -1.04
v  -0.99  0.00  -1.04
f -4 -3 -2 -1
v  -1.02  1.99   0.99
v  -1.02  1.99  -1.04
v   1.00  1.99  -1.04
v   1.00  1.99   0.99
f -4 -3 -2 -1
v  -0.99  0.00  -1.04
v   1.00  0.00  -1.04
v   1.00  1.99  -1.04
v  -1.02  1.99  -1.04
f -4 -3 -2 -1
v	0.53  0.60   0.75
v	0.70  0.60   0.17
v	0.13  0.60   0.00
v  -0.05  0.60   0.57
f -4 -3 -2 -1
v  -0.05  0.00   0.57
v  -0.05  0.60   0.57
v   0.13  0.60   0.00
v   0.13  0.00   0.00
f -4 -3 -2 -1
v	0.53  0.00   0.75
v	0.53  0.60   0.75
v  -0.05  0.60   0.57
v  -0.05  0.00   0.57
f -4 -3 -2 -1
v	0.70  0.00   0.17
v	0.70  0.60   0.17
v	0.53  0.60   0.75
v	0.53  0.00   0.75
f -4 -3 -2 -1
v	0.13  0.00   0.00
v	0.13  0.60   0.00
v	0.70  0.60   0.17
v	0.70  0.00   0.17
f -4 -3 -2 -1
v	0.53  0.00   0.75
v	0.70  0.00   0.17
v	0.13  0.00   0.00
v  -0.05  0.00   0.57
f -12 -11 -10 -9
v	-0.53  1.20   0.09
v	 0.04  1.20  -0.09
v	-0.14  1.20  -0.67
v	-0.71  1.20  -0.49
f -4 -3 -2 -1
v	-0.53  0.00   0.09
v	-0.53  1.20   0.09
v	-0.71  1.20  -0.49
v	-0.71  0.00  -0.49
f -4 -3 -2 -1
v	-0.71  0.00  -0.49
v	-0.71  1.20  -0.49
v	-0.14  1.20  -0.67
v	-0.14  0.00  -0.67
f -4 -3 -2 -1
v	-0.14  0.00  -0.67
v	-0.14  1.20  -0.67
v	 0.04  1.20  -0.09
v	 0.04  0.00  -0.09
f -4 -3 -2 -1
v	 0.04  0.00  -0.09
v	 0.04  1.20  -0.09
v	-0.53  1.20   0.09
v	-0.53  0.00   0.09
f -4 -3 -2 -1
v	-0.53  0.00   0.09
v	 0.04  0.00  -0.09
v	-0.14  0.00  -0.67
v	-0.71  0.00  -0.49
f -8 -7 -6 -5
