{
  "accessors": [
    {
      "bufferView": 2,
      "componentType": 5126,
      "count": 1059,
      "max": [
        0.8812999725341797,
        0.18389999866485596,
        0.8547000288963318
      ],
      "min": [
        -0.864300012588501,
        -0.17100000381469727,
        -0.9829999804496765
      ],
      "type": "VEC3"
    },
    {
      "bufferView": 2,
      "byteOffset": 12708,
      "componentType": 5126,
      "count": 1059,
      "max": [
        0.9988822340965271,
        0.999951958656311,
        0.9991748929023743
      ],
      "min": [
        -0.9999644756317139,
        -0.9998424053192139,
        -0.999900221824646
      ],
      "type": "VEC3"
    },
    {
      "bufferView": 1,
      "componentType": 5126,
      "count": 1059,
      "max": [
        0.9984999895095825,
        0.9998000264167786
      ],
      "min": [
        0.002899999963119626,
        0.0002999900025315583
      ],
      "type": "VEC2"
    },
    {
      "bufferView": 0,
      "componentType": 5125,
      "count": 4065,
      "type": "SCALAR"
    }
  ],
  "asset": {
    "extras": {
      "author": "Neut2000 (https://sketchfab.com/Neut2000)",
      "license": "CC-BY-4.0 (http://creativecommons.org/licenses/by/4.0/)",
      "source": "https://sketchfab.com/3d-models/grand-theft-auto-vice-city-tommy-vercetti-3a545641cf4840aca4c4c9a24fa5c088",
      "title": "Grand Theft Auto Vice City - Tommy Vercetti"
    },
    "generator": "Sketchfab-16.72.0",
    "version": "2.0"
  },
  "bufferViews": [
    {
      "buffer": 0,
      "byteLength": 16260,
      "name": "floatBufferViews",
      "target": 34963
    },
    {
      "buffer": 0,
      "byteLength": 8472,
      "byteOffset": 16260,
      "byteStride": 8,
      "name": "floatBufferViews",
      "target": 34962
    },
    {
      "buffer": 0,
      "byteLength": 25416,
      "byteOffset": 24732,
      "byteStride": 12,
      "name": "floatBufferViews",
      "target": 34962
    }
  ],
  "buffers": [
    {
      "byteLength": 50148,
      "uri": "scene.bin"
    }
  ],
  "images": [
    {
      "uri": "textures/player_baseColor.png"
    }
  ],
  "materials": [
    {
      "doubleSided": true,
      "name": "player",
      "pbrMetallicRoughness": {
        "baseColorTexture": {
          "index": 0
        },
        "metallicFactor": 0.0
      }
    }
  ],
  "meshes": [
    {
      "name": "Object_0",
      "primitives": [
        {
          "attributes": {
            "NORMAL": 1,
            "POSITION": 0,
            "TEXCOORD_0": 2
          },
          "indices": 3,
          "material": 0,
          "mode": 4
        }
      ]
    }
  ],
  "nodes": [
    {
      "children": [
        1
      ],
      "matrix": [
        1.0,
        0.0,
        0.0,
        0.0,
        0.0,
        2.220446049250313e-16,
        -1.0,
        0.0,
        0.0,
        1.0,
        2.220446049250313e-16,
        0.0,
        0.0,
        0.0,
        0.0,
        1.0
      ],
      "name": "Sketchfab_model"
    },
    {
      "children": [
        2
      ],
      "name": "Tommy Vercetti.obj.cleaner.materialmerger.gles"
    },
    {
      "mesh": 0,
      "name": "Object_2"
    }
  ],
  "samplers": [
    {
      "magFilter": 9729,
      "minFilter": 9987,
      "wrapS": 10497,
      "wrapT": 10497
    }
  ],
  "scene": 0,
  "scenes": [
    {
      "name": "Sketchfab_Scene",
      "nodes": [
        0
      ]
    }
  ],
  "textures": [
    {
      "sampler": 0,
      "source": 0
    }
  ]
}
