{
  "accessors": [
    {
      "bufferView": 2,
      "componentType": 5126,
      "count": 4645,
      "max": [
        0.1738079935312271,
        0.2491690069437027,
        1.0437920093536377
      ],
      "min": [
        -0.180076003074646,
        -0.07958699762821198,
        0.5612879991531372
      ],
      "type": "VEC3"
    },
    {
      "bufferView": 2,
      "byteOffset": 55740,
      "componentType": 5126,
      "count": 4645,
      "max": [
        0.9999784827232361,
        0.9997279047966003,
        0.9998600482940674
      ],
      "min": [
        -0.9997390508651733,
        -0.9995484352111816,
        -0.997602641582489
      ],
      "type": "VEC3"
    },
    {
      "bufferView": 1,
      "componentType": 5126,
      "count": 4645,
      "max": [
        0.9956049919128418,
        0.9912030100822449
      ],
      "min": [
        0.006599000189453363,
        0.006835999898612499
      ],
      "type": "VEC2"
    },
    {
      "bufferView": 0,
      "componentType": 5125,
      "count": 24546,
      "type": "SCALAR"
    },
    {
      "bufferView": 2,
      "byteOffset": 111480,
      "componentType": 5126,
      "count": 2730,
      "max": [
        0.6753619909286499,
        0.2544420063495636,
        0.7814319729804993
      ],
      "min": [
        -0.685467004776001,
        -0.18017999827861786,
        -0.26942500472068787
      ],
      "type": "VEC3"
    },
    {
      "bufferView": 2,
      "byteOffset": 144240,
      "componentType": 5126,
      "count": 2730,
      "max": [
        0.9996467232704163,
        0.9999556541442871,
        0.9996898174285889
      ],
      "min": [
        -0.9994004368782043,
        -0.999938428401947,
        -0.9999129772186279
      ],
      "type": "VEC3"
    },
    {
      "bufferView": 1,
      "byteOffset": 37160,
      "componentType": 5126,
      "count": 2730,
      "max": [
        0.9990230202674866,
        0.9911350011825562
      ],
      "min": [
        0.0005440000095404685,
        0.006835999898612499
      ],
      "type": "VEC2"
    },
    {
      "bufferView": 0,
      "byteOffset": 98184,
      "componentType": 5125,
      "count": 10581,
      "type": "SCALAR"
    },
    {
      "bufferView": 2,
      "byteOffset": 177000,
      "componentType": 5126,
      "count": 1430,
      "max": [
        0.06278999894857407,
        0.22652100026607513,
        0.906233012676239
      ],
      "min": [
        -0.06460899859666824,
        0.15317000448703766,
        0.7675099968910217
      ],
      "type": "VEC3"
    },
    {
      "bufferView": 2,
      "byteOffset": 194160,
      "componentType": 5126,
      "count": 1430,
      "max": [
        0.9987315535545349,
        1.0,
        0.9998939037322998
      ],
      "min": [
        -0.999576985836029,
        -0.9904876351356506,
        -0.999902069568634
      ],
      "type": "VEC3"
    },
    {
      "bufferView": 1,
      "byteOffset": 59000,
      "componentType": 5126,
      "count": 1430,
      "max": [
        0.9926760196685791,
        0.9951019883155823
      ],
      "min": [
        0.0045010000467300415,
        0.006835999898612499
      ],
      "type": "VEC2"
    },
    {
      "bufferView": 0,
      "byteOffset": 140508,
      "componentType": 5125,
      "count": 4800,
      "type": "SCALAR"
    },
    {
      "bufferView": 2,
      "byteOffset": 211320,
      "componentType": 5126,
      "count": 1873,
      "max": [
        0.3020400106906891,
        0.23939700424671173,
        0.07948199659585953
      ],
      "min": [
        -0.2961460053920746,
        -0.14955000579357147,
        -1.2588980197906494
      ],
      "type": "VEC3"
    },
    {
      "bufferView": 2,
      "byteOffset": 233796,
      "componentType": 5126,
      "count": 1873,
      "max": [
        0.9988288879394531,
        1.0,
        0.9999781250953674
      ],
      "min": [
        -1.0,
        -0.9991848468780518,
        -1.0
      ],
      "type": "VEC3"
    },
    {
      "bufferView": 1,
      "byteOffset": 70440,
      "componentType": 5126,
      "count": 1873,
      "max": [
        0.9970700144767761,
        0.9968569874763489
      ],
      "min": [
        0.006560999900102615,
        0.019043000414967537
      ],
      "type": "VEC2"
    },
    {
      "bufferView": 0,
      "byteOffset": 159708,
      "componentType": 5125,
      "count": 7572,
      "type": "SCALAR"
    },
    {
      "bufferView": 2,
      "byteOffset": 256272,
      "componentType": 5126,
      "count": 2290,
      "max": [
        0.7482849955558777,
        0.1205969974398613,
        0.07114099711179733
      ],
      "min": [
        -0.758430004119873,
        -0.04643699899315834,
        -0.2222130000591278
      ],
      "type": "VEC3"
    },
    {
      "bufferView": 2,
      "byteOffset": 283752,
      "componentType": 5126,
      "count": 2290,
      "max": [
        0.9997557401657104,
        0.9998899102210999,
        0.9844664931297302
      ],
      "min": [
        -0.9997556805610657,
        -0.999427855014801,
        -0.9970541596412659
      ],
      "type": "VEC3"
    },
    {
      "bufferView": 1,
      "byteOffset": 85424,
      "componentType": 5126,
      "count": 2290,
      "max": [
        0.9863280057907104,
        0.9854580163955688
      ],
      "min": [
        0.01498399954289198,
        0.026366999372839928
      ],
      "type": "VEC2"
    },
    {
      "bufferView": 0,
      "byteOffset": 189996,
      "componentType": 5125,
      "count": 10428,
      "type": "SCALAR"
    },
    {
      "bufferView": 2,
      "byteOffset": 311232,
      "componentType": 5126,
      "count": 1258,
      "max": [
        0.28444600105285645,
        0.29909101128578186,
        -1.037719964981079
      ],
      "min": [
        -0.28734898567199707,
        -0.0810599997639656,
        -1.3110519647598267
      ],
      "type": "VEC3"
    },
    {
      "bufferView": 2,
      "byteOffset": 326328,
      "componentType": 5126,
      "count": 1258,
      "max": [
        0.9998912215232849,
        0.9989199638366699,
        0.9999430775642395
      ],
      "min": [
        -0.999825656414032,
        -0.9995593428611755,
        -0.9999849200248718
      ],
      "type": "VEC3"
    },
    {
      "bufferView": 1,
      "byteOffset": 103744,
      "componentType": 5126,
      "count": 1258,
      "max": [
        0.984375,
        0.9847720265388489
      ],
      "min": [
        0.01629599928855896,
        0.01660200022161007
      ],
      "type": "VEC2"
    },
    {
      "bufferView": 0,
      "byteOffset": 231708,
      "componentType": 5125,
      "count": 4140,
      "type": "SCALAR"
    },
    {
      "bufferView": 2,
      "byteOffset": 341424,
      "componentType": 5126,
      "count": 204,
      "max": [
        0.06214600056409836,
        0.21236500144004822,
        0.8936219811439514
      ],
      "min": [
        -0.06512399762868881,
        0.19151699542999268,
        0.8768929839134216
      ],
      "type": "VEC3"
    },
    {
      "bufferView": 2,
      "byteOffset": 343872,
      "componentType": 5126,
      "count": 204,
      "max": [
        0.914534330368042,
        0.9074711799621582,
        0.9956865310668945
      ],
      "min": [
        -0.9196217656135559,
        -0.8891730904579163,
        -0.9953294992446899
      ],
      "type": "VEC3"
    },
    {
      "bufferView": 1,
      "byteOffset": 113808,
      "componentType": 5126,
      "count": 204,
      "max": [
        0.3837890028953552,
        0.3037109971046448
      ],
      "min": [
        0.01180300023406744,
        0.005859000142663717
      ],
      "type": "VEC2"
    },
    {
      "bufferView": 0,
      "byteOffset": 248268,
      "componentType": 5125,
      "count": 624,
      "type": "SCALAR"
    }
  ],
  "asset": {
    "extras": {
      "author": "Guestfvx0008 (https://sketchfab.com/Trevoncuz2.0)",
      "license": "CC-BY-4.0 (http://creativecommons.org/licenses/by/4.0/)",
      "source": "https://sketchfab.com/3d-models/franklin-gta-5-b967777207d04b14bf03e461ff4fe0b2",
      "title": "Franklin gta 5"
    },
    "generator": "Sketchfab-16.72.0",
    "version": "2.0"
  },
  "bufferViews": [
    {
      "buffer": 0,
      "byteLength": 250764,
      "name": "floatBufferViews",
      "target": 34963
    },
    {
      "buffer": 0,
      "byteLength": 115440,
      "byteOffset": 250764,
      "byteStride": 8,
      "name": "floatBufferViews",
      "target": 34962
    },
    {
      "buffer": 0,
      "byteLength": 346320,
      "byteOffset": 366204,
      "byteStride": 12,
      "name": "floatBufferViews",
      "target": 34962
    }
  ],
  "buffers": [
    {
      "byteLength": 712524,
      "uri": "scene.bin"
    }
  ],
  "images": [
    {
      "uri": "textures/Material__178_baseColor.png"
    },
    {
      "uri": "textures/Material__190_baseColor.png"
    },
    {
      "uri": "textures/Material__202_baseColor.png"
    },
    {
      "uri": "textures/Material__214_baseColor.png"
    },
    {
      "uri": "textures/Material__226_baseColor.png"
    },
    {
      "uri": "textures/Material__238_baseColor.png"
    }
  ],
  "materials": [
    {
      "doubleSided": true,
      "name": "Material__178",
      "pbrMetallicRoughness": {
        "baseColorTexture": {
          "index": 0
        },
        "metallicFactor": 0.0
      }
    },
    {
      "doubleSided": true,
      "name": "Material__190",
      "pbrMetallicRoughness": {
        "baseColorTexture": {
          "index": 1
        },
        "metallicFactor": 0.0
      }
    },
    {
      "doubleSided": true,
      "name": "Material__202",
      "pbrMetallicRoughness": {
        "baseColorTexture": {
          "index": 2
        },
        "metallicFactor": 0.0
      }
    },
    {
      "doubleSided": true,
      "name": "Material__214",
      "pbrMetallicRoughness": {
        "baseColorTexture": {
          "index": 3
        },
        "metallicFactor": 0.0
      }
    },
    {
      "doubleSided": true,
      "name": "Material__226",
      "pbrMetallicRoughness": {
        "baseColorTexture": {
          "index": 4
        },
        "metallicFactor": 0.0
      }
    },
    {
      "doubleSided": true,
      "name": "Material__238",
      "pbrMetallicRoughness": {
        "baseColorTexture": {
          "index": 5
        },
        "metallicFactor": 0.0
      }
    },
    {
      "doubleSided": true,
      "name": "Material__250",
      "pbrMetallicRoughness": {
        "baseColorTexture": {
          "index": 2
        },
        "metallicFactor": 0.0
      }
    }
  ],
  "meshes": [
    {
      "name": "Object_0",
      "primitives": [
        {
          "attributes": {
            "NORMAL": 1,
            "POSITION": 0,
            "TEXCOORD_0": 2
          },
          "indices": 3,
          "material": 0,
          "mode": 4
        }
      ]
    },
    {
      "name": "Object_1",
      "primitives": [
        {
          "attributes": {
            "NORMAL": 5,
            "POSITION": 4,
            "TEXCOORD_0": 6
          },
          "indices": 7,
          "material": 1,
          "mode": 4
        }
      ]
    },
    {
      "name": "Object_2",
      "primitives": [
        {
          "attributes": {
            "NORMAL": 9,
            "POSITION": 8,
            "TEXCOORD_0": 10
          },
          "indices": 11,
          "material": 2,
          "mode": 4
        }
      ]
    },
    {
      "name": "Object_3",
      "primitives": [
        {
          "attributes": {
            "NORMAL": 13,
            "POSITION": 12,
            "TEXCOORD_0": 14
          },
          "indices": 15,
          "material": 3,
          "mode": 4
        }
      ]
    },
    {
      "name": "Object_4",
      "primitives": [
        {
          "attributes": {
            "NORMAL": 17,
            "POSITION": 16,
            "TEXCOORD_0": 18
          },
          "indices": 19,
          "material": 4,
          "mode": 4
        }
      ]
    },
    {
      "name": "Object_5",
      "primitives": [
        {
          "attributes": {
            "NORMAL": 21,
            "POSITION": 20,
            "TEXCOORD_0": 22
          },
          "indices": 23,
          "material": 5,
          "mode": 4
        }
      ]
    },
    {
      "name": "Object_6",
      "primitives": [
        {
          "attributes": {
            "NORMAL": 25,
            "POSITION": 24,
            "TEXCOORD_0": 26
          },
          "indices": 27,
          "material": 6,
          "mode": 4
        }
      ]
    }
  ],
  "nodes": [
    {
      "children": [
        1
      ],
      "matrix": [
        1.0,
        0.0,
        0.0,
        0.0,
        0.0,
        2.220446049250313e-16,
        -1.0,
        0.0,
        0.0,
        1.0,
        2.220446049250313e-16,
        0.0,
        0.0,
        0.0,
        0.0,
        1.0
      ],
      "name": "Sketchfab_model"
    },
    {
      "children": [
        2,
        3,
        4,
        5,
        6,
        7,
        8
      ],
      "name": "franklin.obj.cleaner.materialmerger.gles"
    },
    {
      "mesh": 0,
      "name": "Object_2"
    },
    {
      "mesh": 1,
      "name": "Object_3"
    },
    {
      "mesh": 2,
      "name": "Object_4"
    },
    {
      "mesh": 3,
      "name": "Object_5"
    },
    {
      "mesh": 4,
      "name": "Object_6"
    },
    {
      "mesh": 5,
      "name": "Object_7"
    },
    {
      "mesh": 6,
      "name": "Object_8"
    }
  ],
  "samplers": [
    {
      "magFilter": 9729,
      "minFilter": 9987,
      "wrapS": 10497,
      "wrapT": 10497
    }
  ],
  "scene": 0,
  "scenes": [
    {
      "name": "Sketchfab_Scene",
      "nodes": [
        0
      ]
    }
  ],
  "textures": [
    {
      "sampler": 0,
      "source": 0
    },
    {
      "sampler": 0,
      "source": 1
    },
    {
      "sampler": 0,
      "source": 2
    },
    {
      "sampler": 0,
      "source": 3
    },
    {
      "sampler": 0,
      "source": 4
    },
    {
      "sampler": 0,
      "source": 5
    }
  ]
}
